<svg xmlns="http://www.w3.org/2000/svg" xml:space="preserve" fill="none" viewBox="0 0 348 348"><path stroke="#000" stroke-width="2" d="M 4.7,343.066 V 6.156 h 337.67 v 336.91 z"/><path stroke="#000" stroke-width="2" d="M298.2925 24.9925c8.376 0 15.165 6.966 15.165 15.56 0 4.126-1.594 8.084-4.44 11-2.842 2.92-6.7 4.56-10.722 4.56-8.376 0-15.165-6.967-15.165-15.56 0-8.594 6.79-15.56 15.166-15.56zM24.918793 27.750483H123.178154V126.009844H24.918793zM145.83162 27.750483H244.090981V126.009844H145.83162z"/><path fill="#000" fill-rule="evenodd" d="M31.326164-258.96265H90.340416V-209.158985H31.326164z" transform="scale(1 -1)"/><path fill="#000" fill-rule="evenodd" d="M111.28474 209.159H150.676437V258.962665H111.28474zM171.62076 209.159H211.012457V258.962665H171.62076zM231.95677 209.159H321.005537V258.962665H231.95677z"/><path stroke="#000" stroke-width="1.61397" d="m 74.91465,204.33426 -28.08937,0 14.044685,-24.32611 z" paint-order="markers" transform="matrix(1.3279029 0 0 1.1563905 -19.95944 -31.955942)"/><path stroke="#000" stroke-width="1.61397" d="m 74.91465,204.33426 -28.08937,0 14.044685,-24.32611 z" paint-order="markers" transform="matrix(1.3279029 0 0 -1.1563905 -19.95944 500.07757)"/><path stroke="#000" stroke-width="1.61397" d="m 74.91465,204.33426 -28.08937,0 14.044685,-24.32611 z" paint-order="markers" transform="matrix(1.3279029 0 0 1.1563905 50.151183 -31.955942)"/><path stroke="#000" stroke-width="1.61397" d="m 74.91465,204.33426 -28.08937,0 14.044685,-24.32611 z" paint-order="markers" transform="matrix(1.3279029 0 0 -1.1563905 50.151183 500.07757)"/><path stroke="#000" stroke-width="1.61397" d="m 74.91465,204.33426 -28.08937,0 14.044685,-24.32611 z" paint-order="markers" transform="matrix(1.3279029 0 0 1.1563905 110.4872 -31.955942)"/><path stroke="#000" stroke-width="1.61397" d="m 74.91465,204.33426 -28.08937,0 14.044685,-24.32611 z" paint-order="markers" transform="matrix(1.3279029 0 0 -1.1563905 110.4872 500.07757)"/><path stroke="#000" stroke-width="1.61397" d="m 74.91465,204.33426 -28.08937,0 14.044685,-24.32611 z" paint-order="markers" transform="matrix(1.3279029 0 0 1.1563905 195.65175 -31.955942)"/><path stroke="#000" stroke-width="1.61397" d="m 74.91465,204.33426 -28.08937,0 14.044685,-24.32611 z" paint-order="markers" transform="matrix(1.3279029 0 0 -1.1563905 195.65175 500.07757)"/><path stroke="#000" stroke-width="2" d="M272.40326 96.229195H321.005543V126.009844H272.40326z"/><path fill="#000" d="m 40.917804,45.590079 c -1.332235,-7.304101 7.166107,-6.612105 10.618807,-4.530691 17.544816,10.57666 36.616075,13.507488 52.952449,21.945535 7.98908,4.12651 6.87279,7.721824 2.40693,12.459401 C 92.293007,90.955794 72.903909,102.89135 63.429675,114.39995 59.676099,118.95952 51.014608,117.86619 50.12077,109.86926 47.760984,88.756883 44.490975,65.180315 40.917804,45.590079 Z"/><path stroke="#000" stroke-linecap="round" stroke-linejoin="round" stroke-width="8" d="m 194.53655,53.660373 c -5.45815,-0.577244 -24.97804,1.137713 -34.12177,1.982177 0.69613,17.815981 1.23856,35.93938 1.55743,54.50988 18.26435,-1.08059 37.3782,-1.02674 55.64254,-0.9911 -0.47056,-8.01519 -1.13121,-16.366401 -0.99109,-24.49404"/><path stroke="#000" stroke-linecap="round" stroke-linejoin="round" stroke-width="8" d="M 177.82963,94.01184 C 193.69234,76.555095 212.04214,61.585445 229.6494,45.873247"/><path stroke="#000" stroke-linecap="round" stroke-linejoin="round" stroke-width="8" d="m 205.29694,44.740575 c 7.6534,0.377557 15.2326,0.896699 24.35246,1.132672 0.005,7.217445 0.82589,13.890989 -1.27425,22.511872"/></svg>